<svg xmlns="http://www.w3.org/2000/svg" version="1.1" xmlns:xlink="http://www.w3.org/1999/xlink" xmlns:svgjs="http://svgjs.com/svgjs" width="1440" height="622" preserveAspectRatio="none" viewBox="0 0 1440 622"><g mask="url(&quot;#SvgjsMask1001&quot;)" fill="none"><rect width="1440" height="622" x="0" y="0" fill="rgba(255, 255, 255, 1)"></rect><path d="M960.42 279.88L1000.86 279.88L1000.86 320.32L960.42 320.32z" stroke="#e73635"></path><path d="M1093.59 357.86 a12.81 12.81 0 1 0 25.62 0 a12.81 12.81 0 1 0 -25.62 0z" stroke="#d3b714"></path><path d="M1013.23 566.42 a25.18 25.18 0 1 0 50.36 0 a25.18 25.18 0 1 0 -50.36 0z" fill="#e73635"></path><path d="M168.58 131.37 a43.5 43.5 0 1 0 87 0 a43.5 43.5 0 1 0 -87 0z" stroke="#d3b714"></path><path d="M-32.99 476.94a57.42 57.42 0 1 0 85.78 76.35z" fill="#e73635"></path><path d="M167.98 85.63L216.23 85.63L216.23 87.34L167.98 87.34z" fill="#e73635"></path><path d="M508.31 113.13a28.12 28.12 0 1 0 7.25 55.77z" fill="#037b0b"></path><path d="M944.73-9.66a23.51 23.51 0 1 0-42.52 20.07z" fill="#d3b714"></path><path d="M805.17 138.86L854.72 138.86L854.72 188.41L805.17 188.41z" fill="#e73635"></path><path d="M132.29 282.74a9.89 9.89 0 1 0-0.42 19.78z" stroke="#e73635"></path><path d="M551.87 607.85L582.48 607.85L582.48 649.12L551.87 649.12z" stroke="#037b0b"></path><path d="M276.18 192.37L335.66 192.37L335.66 251.85L276.18 251.85z" fill="#e73635"></path><path d="M240.18 6.11a35.26 35.26 0 1 0-43.14 55.79z" stroke="#d3b714"></path><path d="M39.48 201.09a8.48 8.48 0 1 0-13.04-10.85z" stroke="#d3b714"></path><path d="M911.42 461.23L953.5 461.23L953.5 463.47L911.42 463.47z" fill="#037b0b"></path><path d="M1227.79 201.97L1254.44 201.97L1254.44 228.62L1227.79 228.62z" stroke="#e73635"></path><path d="M691.78 259.43a42.28 42.28 0 1 0-62.11-57.39z" fill="#e73635"></path><path d="M387.77 7.2L399.35 7.2L399.35 44.26L387.77 44.26z" stroke="#e73635"></path><path d="M1241.51 309.18L1300.16 309.18L1300.16 347.28L1241.51 347.28z" stroke="#d3b714"></path><path d="M821.04 479.85L851.32 479.85L851.32 510.13L821.04 510.13z" fill="#d3b714"></path><path d="M72.53 513.79L100.12 513.79L100.12 541.38L72.53 541.38z" fill="#037b0b"></path><path d="M958.84 30.09L1007.44 30.09L1007.44 78.69L958.84 78.69z" stroke="#d3b714"></path><path d="M280.11 571.19 a41.8 41.8 0 1 0 83.6 0 a41.8 41.8 0 1 0 -83.6 0z" fill="#e73635"></path><path d="M963.01 436.04a28.03 28.03 0 1 0-23.9 50.71z" fill="#e73635"></path><path d="M370.73 108.12 a59.98 59.98 0 1 0 119.96 0 a59.98 59.98 0 1 0 -119.96 0z" fill="#d3b714"></path><path d="M603.09 407.86 a37.61 37.61 0 1 0 75.22 0 a37.61 37.61 0 1 0 -75.22 0z" stroke="#d3b714"></path><path d="M719.13 50.6 a5.11 5.11 0 1 0 10.22 0 a5.11 5.11 0 1 0 -10.22 0z" stroke="#d3b714"></path><path d="M1325.13 405 a20.11 20.11 0 1 0 40.22 0 a20.11 20.11 0 1 0 -40.22 0z" fill="#d3b714"></path><path d="M1363.65 165.27L1388.26 165.27L1388.26 189.88L1363.65 189.88z" fill="#d3b714"></path></g><defs><mask id="SvgjsMask1001"><rect width="1440" height="622" fill="#ffffff"></rect></mask></defs></svg>